<svg xmlns="http://www.w3.org/2000/svg" xmlns:xlink="http://www.w3.org/1999/xlink"><defs><symbol viewBox="0 0 256 256" preserveAspectRatio="xMidYMid" id="icon-javascript">
    <g>
        <path d="M0,0 L256,0 L256,256 L0,256 L0,0 Z" fill="#F7DF1E">
</path>
        <path d="M67.311746,213.932292 L86.902654,202.076241 C90.6821079,208.777346 94.1202286,214.447137 102.367086,214.447137 C110.272203,214.447137 115.256076,211.354819 115.256076,199.326883 L115.256076,117.528787 L139.313575,117.528787 L139.313575,199.666997 C139.313575,224.58433 124.707759,235.925943 103.3984,235.925943 C84.1532952,235.925943 72.9819429,225.958603 67.3113397,213.93026" fill="#000000">
</path>
        <path d="M152.380952,211.354413 L171.969422,200.0128 C177.125994,208.433981 183.827911,214.619835 195.684368,214.619835 C205.652521,214.619835 212.009041,209.635962 212.009041,202.762159 C212.009041,194.513676 205.479416,191.592025 194.481168,186.78207 L188.468419,184.202565 C171.111213,176.81473 159.597308,167.53534 159.597308,147.944838 C159.597308,129.901308 173.344508,116.153295 194.825752,116.153295 C210.119924,116.153295 221.117765,121.48094 229.021663,135.400432 L210.29059,147.428775 C206.166146,140.040127 201.699556,137.119289 194.826159,137.119289 C187.78047,137.119289 183.312254,141.587098 183.312254,147.428775 C183.312254,154.646349 187.78047,157.568406 198.089956,162.036622 L204.103924,164.614095 C224.553448,173.378641 236.067352,182.313448 236.067352,202.418387 C236.067352,224.071924 219.055137,235.927975 196.200432,235.927975 C173.860978,235.927975 159.425829,225.274311 152.381359,211.354413" fill="#000000">
</path>
    </g>
</symbol><symbol viewBox="0 0 256 256" preserveAspectRatio="xMidYMid" id="icon-pug">
	<g>
		<circle fill="#F2F2F2" cx="128" cy="128" r="128">
</circle>
		<path d="M166.493091,203.682909 C141.218909,212.992 113.477818,212.992 88.2036364,203.682909 C85.8763636,202.845091 84.0145455,200.098909 84.0145455,197.725091 L84.0145455,191.627636 C84.0145455,189.253818 85.8763636,188.090182 88.2036364,188.928 C113.477818,198.237091 141.218909,198.237091 166.493091,188.928 C168.820364,188.090182 170.682182,189.253818 170.682182,191.627636 L170.682182,197.725091 C170.635636,200.098909 168.773818,202.845091 166.493091,203.682909 L166.493091,203.682909 Z" fill="#ED1C24">
</path>
		<path d="M166.493091,196.235636 C141.218909,209.175273 113.477818,209.175273 88.2036364,196.235636 C85.8763636,195.072 84.0145455,191.255273 84.0145455,187.950545 L84.0145455,179.525818 C84.0145455,176.221091 85.8763636,174.592 88.2036364,175.802182 C113.477818,188.741818 141.218909,188.741818 166.493091,175.802182 C168.820364,174.638545 170.682182,176.221091 170.682182,179.525818 L170.682182,187.950545 C170.635636,191.255273 168.773818,195.072 166.493091,196.235636 L166.493091,196.235636 Z" fill="#C1272D">
</path>
		<g transform="translate(117.760000, 202.938182)">
			<ellipse fill="#C1272D" cx="9.58836364" cy="3.90981818" rx="3.584" ry="3.584">
</ellipse>
			<ellipse fill="#FF931E" cx="9.58836364" cy="3.39781818" rx="3.072" ry="3.072">
</ellipse>
			<ellipse fill="#FFB81E" cx="10.4727273" cy="4.46836364" rx="1.07054545" ry="1.07054545">
</ellipse>
			<ellipse fill="#FF931E" cx="9.58836364" cy="15.5461818" rx="9.58836364" ry="9.58836364">
</ellipse>
			<circle fill="#FFB81E" cx="9.58836364" cy="15.6392727" r="8.61090909">
</circle>
			<path d="M12.1018182,12.8930909 C12.6138182,13.3585455 12.8930909,14.0101818 12.8930909,14.9410909 C12.8930909,15.872 12.6138182,16.5236364 12.1018182,16.9890909 C11.5432727,17.408 10.752,17.6407273 9.63490909,17.6407273 L8.65745455,17.6407273 L8.65745455,19.7352727 L6.98181818,19.7352727 L6.98181818,12.2414545 L9.63490909,12.2414545 C10.752,12.2414545 11.5898182,12.4276364 12.1018182,12.8930909 L12.1018182,12.8930909 Z M10.8916364,15.8254545 C11.0778182,15.5927273 11.1709091,15.2669091 11.1709091,14.848 C11.1709091,14.4290909 11.0312727,14.1032727 10.7985455,13.9170909 C10.5192727,13.7309091 10.1469091,13.6378182 9.58836364,13.6378182 L8.65745455,13.6378182 L8.65745455,16.1512727 L9.77454545,16.1512727 C10.3330909,16.1512727 10.7054545,16.0581818 10.8916364,15.8254545 L10.8916364,15.8254545 Z" fill="#FF931E">
</path>
		</g>
		<path d="M205.032727,140.474182 C207.36,172.357818 172.869818,200.983273 127.813818,200.936727 C82.8043636,200.983273 48.2676364,172.357818 50.5949091,140.474182 C52.9221818,108.497455 87.5985455,82.1061818 127.906909,82.0596364 C168.261818,82.1061818 202.658909,108.497455 205.032727,140.474182 L205.032727,140.474182 Z" fill="#F7BD89">
</path>
		<path d="M127.674182,77.5912727 C85.3178182,77.5912727 45.9869091,107.426909 53.4341818,152.855273 C54.9236364,157.044364 57.3905455,167.936 69.1665455,177.570909 C72.704,180.456727 78.8014545,182.877091 81.6872727,180.922182 C89.088,175.895273 75.9621818,161.466182 90.9498182,148.154182 L90.624,148.154182 C98.7694545,141.963636 110.312727,137.029818 127.581091,137.029818 C144.849455,137.029818 156.392727,141.963636 164.538182,148.154182 L164.212364,148.154182 C179.2,161.466182 166.120727,175.895273 173.474909,180.922182 C176.360727,182.877091 182.504727,180.456727 185.995636,177.570909 C197.771636,167.936 200.285091,157.044364 201.774545,152.855273 C209.221818,107.380364 170.030545,77.5912727 127.674182,77.5912727 L127.674182,77.5912727 Z" fill="#FBD5A0">
</path>
		<path d="M164.119273,153.041455 C156.997818,144.290909 143.499636,135.819636 127.813818,135.819636 L127.674182,135.819636 L127.627636,135.819636 C111.895273,135.819636 98.3970909,144.290909 91.3221818,153.041455 C83.968,161.978182 86.6210909,165.794909 86.6210909,174.359273 C86.6210909,205.358545 97.4661818,196.328727 104.773818,200.052364 C112.221091,203.682909 119.761455,202.379636 127.674182,202.379636 L127.674182,202.379636 L127.813818,202.379636 C135.726545,202.379636 143.266909,203.682909 150.714182,200.005818 C157.975273,196.282182 168.866909,205.405091 168.866909,174.405818 C168.820364,165.888 171.473455,161.978182 164.119273,153.041455 L164.119273,153.041455 Z" fill="#000000">
</path>
		<g transform="translate(62.370909, 123.810909)">
			<circle fill="#F7BD89" cx="13.0327273" cy="15.4530909" r="12.9861818">
</circle>
			<circle fill="#000000" cx="14.1963636" cy="13.2654545" r="12.9861818">
</circle>
			<circle fill="#FFFFFF" cx="17.5010909" cy="7.44727273" r="3.35127273">
</circle>
		</g>
		<g transform="translate(165.701818, 123.810909)">
			<circle fill="#F7BD89" cx="13.9636364" cy="15.4530909" r="12.9861818">
</circle>
			<circle fill="#000000" cx="13.2189091" cy="13.2654545" r="12.9861818">
</circle>
			<circle fill="#FFFFFF" cx="16.5236364" cy="7.44727273" r="3.35127273">
</circle>
		</g>
		<path d="M100.352,89.2276364 C100.352,89.2276364 56.3665455,96.8145455 54.5978182,149.364364 C54.5512727,150.155636 53.7134545,150.667636 53.0152727,150.248727 L51.6189091,149.410909 L50.5483636,135.633455 L52.5498182,107.52 L70.8887273,93.9752727 L87.3658182,87.3192727 L100.352,89.2276364 L100.352,89.2276364 Z" fill="#F7BD89">
</path>
		<path d="M154.949818,89.2276364 C154.949818,89.2276364 198.935273,96.8145455 200.704,149.364364 C200.750545,150.155636 201.588364,150.667636 202.286545,150.248727 L203.682909,149.410909 L204.753455,135.633455 L202.752,107.52 L184.413091,93.9752727 L167.936,87.3192727 L154.949818,89.2276364 L154.949818,89.2276364 Z" fill="#F7BD89">
</path>
		<path d="M126.752745,182.809821 L126.752745,156.299636 L128.68871,156.299636 L128.68871,182.747197 C131.541817,183.081575 135.248777,184.740247 138.798545,185.809455 C142.475636,187.112727 146.013091,187.624727 144.616727,187.810909 C139.776,187.997091 134.469818,186.181818 127.953455,186.274909 C121.390545,186.181818 116.084364,187.997091 111.290182,187.810909 C109.893818,187.578182 113.431273,187.066182 117.108364,185.809455 C120.473574,184.795837 123.944738,183.252455 126.752745,182.809821 Z M139.869091,147.362909 C141.405091,150.760727 136.098909,156.299636 127.674182,156.299636 C119.249455,156.299636 113.943273,150.760727 115.479273,147.362909 C116.968727,143.872 122.321455,142.754909 127.674182,142.708364 C133.026909,142.754909 138.379636,143.872 139.869091,147.362909 Z" fill="#4D4D4D">
</path>
		<path d="M100.352,89.2276364 C100.352,89.2276364 48.5469091,96.3956364 53.0152727,147.828364 C53.248,150.434909 42.6821818,136.704 34.4901818,132.514909 C26.2981818,128.325818 26.5774545,114.781091 26.5774545,114.781091 C26.5774545,114.781091 26.4378182,91.1825455 59.5316364,84.2007273 C92.5789091,77.2654545 100.352,89.2276364 100.352,89.2276364 Z M154.949818,89.2276364 C154.949818,89.2276364 206.754909,96.3956364 202.286545,147.828364 C202.053818,150.434909 212.619636,136.704 220.811636,132.514909 C229.003636,128.325818 228.724364,114.781091 228.724364,114.781091 C228.724364,114.781091 228.864,91.1825455 195.770182,84.2007273 C162.722909,77.2654545 154.949818,89.2276364 154.949818,89.2276364 Z" fill="#000000">
</path>
		<path d="M127.720727,126.277818 C111.616,126.277818 95.3250909,142.103273 98.7229091,140.334545 C105.006545,137.029818 108.637091,131.211636 127.720727,131.211636 C146.804364,131.211636 150.388364,137.029818 156.718545,140.334545 C160.116364,142.103273 143.825455,126.277818 127.720727,126.277818 L127.720727,126.277818 Z" fill="#F7BD89">
</path>
		<path d="M127.720727,119.342545 C115.479273,119.342545 103.144727,131.351273 105.704727,130.001455 C110.498909,127.488 116.642909,123.066182 127.720727,123.066182 C138.798545,123.066182 144.942545,127.488 149.736727,130.001455 C152.296727,131.351273 139.962182,119.342545 127.720727,119.342545 L127.720727,119.342545 Z" fill="#F7BD89">
</path>
		<path d="M127.627636,80.384 C114.129455,80.384 100.445091,88.1105455 103.284364,87.2261818 C108.590545,85.5970909 115.386182,82.7578182 127.627636,82.7578182 C139.869091,82.7578182 146.664727,85.5970909 151.970909,87.2261818 C154.810182,88.1105455 141.172364,80.384 127.627636,80.384 L127.627636,80.384 Z" fill="#F7BD89">
</path>
		<path d="M130.746182,145.501091 C131.118545,146.338909 129.815273,147.688727 127.720727,147.688727 C125.626182,147.688727 124.322909,146.338909 124.695273,145.501091 C125.067636,144.663273 126.370909,144.384 127.720727,144.337455 C129.024,144.337455 130.373818,144.616727 130.746182,145.501091 L130.746182,145.501091 Z" fill="#808080">
</path>
	</g>
</symbol><symbol viewBox="-18.5 0 293 293" preserveAspectRatio="xMidYMid" id="icon-sass">
    <g>
        <path d="M78.67,179.0285 C74.02,181.9365 67.014,186.6475 61.594,191.7715 C52.696,200.1745 50.834,211.8305 55.528,214.5535 C59.87,217.0705 70.007,214.0755 77.262,206.1625 C84.876,197.8545 88.016,187.3225 84.773,175.3665 C84.392,175.5935 84.018,175.8215 83.651,176.0335 L83.659,176.0495 L83.167,176.3285 C81.274,177.4585 79.727,178.3905 78.67,179.0285 L78.67,179.0285 Z M209.341,175.2565 C206.707,180.9805 206.575,182.8225 207.375,183.3955 C211.197,182.0225 217.52,178.7135 217.57,169.8465 C217.578,168.5185 217.285,167.0935 216.815,165.6045 C212.729,169.2225 210.374,173.0105 209.341,175.2565 L209.341,175.2565 Z M250.351,157.9495 C240.141,156.7595 232.174,158.1915 225.991,160.7675 C227.136,163.7475 228.016,166.8515 228.14,169.9785 C228.427,176.8415 223.703,181.9205 218.78,185.5465 C215.905,187.6605 212.846,189.0695 210.278,189.9205 C208.225,190.7865 205.496,191.6815 203.559,191.2865 C199.289,190.4185 197.016,186.6255 199.921,178.2585 C201.49,173.7305 206.016,166.8375 213.322,160.9005 C211.657,157.4725 209.801,153.9795 208.855,150.7705 C206.991,144.4445 206.428,140.6205 206.428,140.6205 C206.428,140.6205 200.406,153.1055 192.637,164.4595 C192.189,165.1195 191.742,165.7665 191.294,166.4115 C192.82,169.9575 194.022,173.7075 194.185,177.4885 C194.471,184.3505 191.5,189.5395 186.57,193.1575 C183.901,195.1255 181.054,196.4845 178.611,197.3495 C177.049,198.0315 173.872,199.1535 169.354,199.4555 C166.883,199.6245 164.506,199.4715 163.179,198.4655 C161.352,197.0855 161.132,195.3825 162.078,193.0555 C162.878,191.0805 168.863,184.2485 173.881,178.2665 C175.267,176.6145 176.587,174.9265 177.768,173.3635 L177.739,173.2965 C177.739,173.2975 178.648,172.1235 180.123,170.0755 C178.289,166.1265 175.964,162.0155 174.871,158.2875 C173.007,151.9615 172.443,148.1365 172.443,148.1365 C172.443,148.1365 166.339,163.7855 159.98,176.2775 C155.059,185.9525 151.772,191.8155 150.291,194.3845 L150.276,194.4875 C150.276,194.4875 150.055,194.8625 149.674,195.4495 L149.389,195.9255 L149.381,195.8815 C147.73,198.3195 144.026,203.0965 140.344,203.0965 C130.236,203.0965 133.947,182.5675 133.947,182.5675 C133.947,182.5675 130.992,190.1715 127.661,196.6965 C124.948,202.0175 122.476,206.5255 117.07,206.5255 C115.515,206.5255 113.05,206.4805 111.003,204.5345 C106.36,200.1235 102.81,188.9225 103.506,180.2475 C104.1,172.8715 105.237,167.7625 106.792,163.4995 C104.019,165.0105 100.814,166.8025 97.55,168.7185 L92.532,171.6755 L92.694,171.9695 C96.845,179.9995 97.953,197.5925 88.901,211.0975 C79.85,224.6095 63.001,232.8305 46.585,228.2655 C41.288,226.7895 33.286,215.8315 40.188,200.5575 C46.276,187.0885 70.607,174.3545 77.019,171.1765 L78.779,170.2075 C65.995,159.0215 34.071,143.9315 29.597,120.7525 C28.335,114.2275 31.394,98.6235 50.553,80.6855 C66.668,65.6025 89.085,54.0495 109.793,46.6875 C144.583,34.3205 181.341,41.6155 186.996,63.7965 C192.556,85.6105 173.632,111.7035 149.396,121.0835 C127.757,129.4575 109.866,128.1295 102.516,125.7155 C94.161,122.9705 89.261,117.4575 88.066,114.3455 C87.596,113.1275 86.788,111.0805 88.066,110.3755 C88.85,109.9425 89.165,110.0455 91.263,112.3645 C93.259,114.5665 101.283,120.4755 116.526,118.7645 C156.526,114.2805 180.621,83.1815 173.007,66.4465 C167.675,54.7325 136.845,49.4475 98.327,68.6555 C51.308,92.0985 48.756,111.4245 48.353,118.7645 C47.252,138.9555 73.255,149.5765 87.325,164.5925 L87.867,165.1875 C90.5,163.7345 93.281,162.2005 96.009,160.7035 C103.103,156.8055 109.793,153.1495 112.91,151.4465 C117.862,144.2485 127.91,136.3055 135.165,136.3055 C146.762,136.3055 142.779,152.9745 142.779,152.9745 C142.779,152.9745 143.014,152.2115 143.329,152.2045 C143.659,152.1955 144.936,150.0085 148.516,151.3145 C152.198,152.6655 151.361,155.2495 151.384,155.5135 C151.428,156.0265 147.034,170.8455 145.208,180.3505 C144.334,184.8865 144.84,188.1905 145.098,188.1905 C145.457,188.1905 146.191,187.0375 146.873,185.7975 L146.858,185.7605 C146.858,185.7605 147.371,184.8215 148.23,183.1335 L148.399,182.7805 L148.406,182.7965 C149.419,180.8145 150.841,177.9005 152.484,174.2895 C155.704,167.1925 167.99,139.7925 169.032,136.7615 C170.073,133.7305 170.616,130.5965 171.13,129.2525 C171.636,127.9095 175.979,126.8965 181.054,126.9335 C186.13,126.9705 186.645,129.1355 186.68,129.5835 C186.717,130.0305 184.267,136.0425 183.702,140.2915 C183.145,144.5415 183.681,146.6615 184.143,150.2295 C184.444,152.5625 185.903,155.5215 187.628,158.8755 C192.88,150.2875 202.121,133.8615 203.009,129.2595 C203.617,126.1115 204.593,123.0945 205.107,121.7505 C205.62,120.4075 209.956,119.3955 215.031,119.4315 C220.107,119.4685 220.62,121.6335 220.657,122.0815 C220.694,122.5295 218.236,128.5405 217.679,132.7905 C217.121,137.0325 217.658,139.1615 218.119,142.7285 C218.516,145.7815 220.877,149.8845 223.218,154.5515 C229.606,151.4025 237.125,149.2895 245.928,149.2455 C249.573,149.2245 253.806,149.5905 255.992,150.2725 L255.992,80.0535 C255.992,75.0995 253.453,70.5345 249.163,68.0615 L134.616,1.8555 C130.333,-0.6185 125.088,-0.6185 120.804,1.8555 L6.573,68.0295 C2.289,70.5035 0,75.0765 0,80.0225 L0,212.4915 C0,217.4375 2.303,222.0105 6.58,224.4835 L120.995,290.7095 C125.278,293.1915 130.472,293.1915 134.755,290.7095 L249.222,224.4835 C253.505,222.0025 256,217.4365 256,212.4915 L256,158.9555 C254.547,158.5275 252.42,158.1905 250.351,157.9495 L250.351,157.9495 Z M127.119,151.0125 C124.662,153.7645 120.474,160.8615 118.515,166.8015 C114.62,178.5955 116.307,190.5815 119.065,191.3015 C122.285,192.1445 127.567,176.3795 130.096,170.2135 C131.681,166.3525 137.843,149.2155 136.493,146.9255 C135.439,145.1345 131.073,146.5805 127.119,151.0125 L127.119,151.0125 Z M171.682,190.7645 C171.682,190.7645 170.905,191.4995 171.241,191.7045 C171.696,191.9765 172.679,191.6235 173.75,191.0655 C176.78,189.1585 183.579,184.4015 183.594,177.3625 C183.594,177.1575 183.586,176.9595 183.572,176.7465 C181.995,178.8165 180.542,180.6585 179.288,182.2215 C177.146,184.8855 171.682,190.7645 171.682,190.7645 L171.682,190.7645 Z" fill="#8CC84B">
</path>
    </g>
</symbol><symbol viewBox="-17 0 290 290" preserveAspectRatio="xMidYMid" id="icon-webpack">
	<g>
		<polygon fill="#FFFFFF" points="128 0.0483018868 256 72.4528302 256 217.310189 128 289.714717 0 217.310189 0 72.4528302">
</polygon>
		<path d="M233.153208,212.286792 L132.250566,269.427925 L132.250566,224.990189 L195.139623,190.357736 L233.153208,212.286792 Z M240.060377,206.055849 L240.060377,86.6535849 L203.157736,107.954717 L203.157736,184.754717 L240.060377,206.055849 Z M22.4603774,212.286792 L123.363019,269.379623 L123.363019,224.941887 L60.4739623,190.357736 L22.4603774,212.286792 L22.4603774,212.286792 Z M15.5532075,206.055849 L15.5532075,86.6535849 L52.4558491,107.954717 L52.4558491,184.754717 L15.5532075,206.055849 L15.5532075,206.055849 Z M19.8520755,78.925283 L123.363019,20.3833962 L123.363019,63.3720755 L57.0445283,99.84 L56.5132075,100.129811 L19.8520755,78.925283 L19.8520755,78.925283 Z M235.713208,78.925283 L132.250566,20.3833962 L132.250566,63.3720755 L198.520755,99.8883019 L199.052075,100.178113 L235.713208,78.925283 L235.713208,78.925283 Z" fill="#8ED6FB">
</path>
		<path d="M123.363019,214.846792 L61.3433962,180.697358 L61.3433962,113.123019 L123.363019,148.914717 L123.363019,214.846792 L123.363019,214.846792 Z M132.250566,214.846792 L194.270189,180.74566 L194.270189,113.123019 L132.250566,148.914717 L132.250566,214.846792 Z M65.4973585,105.298113 L127.806792,71.0520755 L190.067925,105.298113 L127.806792,141.234717 L65.4973585,105.298113 L65.4973585,105.298113 Z" fill="#1C78C0">
</path>
	</g>
</symbol></defs></svg>